<svg xmlns="http://www.w3.org/2000/svg" width="406" height="115" viewBox="0 0 406 115">
    <g fill="#0066A6" fill-rule="evenodd">
        <path d="M291.537 79.302v34.875H282V36l22.473.183s18.063-.915 22.986 7.341c0 0 8.385 14.304-3.282 28.26.003 0-5.664 7.947-32.64 7.518l.018-5.907s16.911 2.163 23.982-7.107c0 0 8.988-13.365-2.577-22.413 0 0-3.633-3.222-21.405-2.151l-.018 37.578zM138.864 70.606c.836-.127 1.704-.377 2.367-.844L174.783 36h10.401l-35.376 35.235 40.302 42.948h-15.063c-9.102-11.391-20.555-24.178-34.359-38.361l-1.824-.364v38.719H129V36h9.864v34.606zM208.401 36.183s22.428 35.601 28.995 42.75c0 0 16.956-33.018 20.607-42.933h9.663l-34.876 68.902a16.912 16.912 0 0 1-15.089 9.275s6.933-11.016 13.5-23.685c0 0-9.669-14.859-37.02-54.492l14.22.183zM405.805 41.068L402.98 51.36s-11.82-14.018-30.179-9.233c0 0-21.71 4.44-20.646 36.412 0 0 .345 28.944 27.35 30.373 0 0 13.417.886 24.537-9.413l-.534 8.525s-22.686 11.594-43.767 2.482c-21.08-9.112-19.96-40.64-13.97-55.324 5.989-14.683 22.45-26.222 60.034-14.115zM84.772 30.072L42 114H9a9.001 9.001 0 0 1-8.938-7.942C31.816 84.294 57.19 60.673 81.87 27.872a9.03 9.03 0 0 1 2.902 2.2zM87 36.512V105a9 9 0 0 1-9 9H64.5L87 36.513zM75.923 27C52.721 50.714 29.72 65.37 0 74.193V36a9 9 0 0 1 9-9h66.923zM102.696.805l-7.378 31.457c-.982-5.57-3.112-9.503-6.388-11.798-3.277-2.294-7.7-2.95-13.272-1.968L102.696.805z"/>
    </g>
</svg>
